<?xml version="1.0" encoding="UTF-8"?>
<svg width="270px" height="128px" viewBox="0 0 270 128" version="1.1" xmlns="http://www.w3.org/2000/svg" xmlns:xlink="http://www.w3.org/1999/xlink">
    <title>Group 31</title>
    <defs>
        <polygon id="path-1" points="51.526513 0 51.526513 52 0 52 0 0"></polygon>
        <path d="M28.7395127,32.424208 C28.7998297,32.208091 28.9979479,32.0663519 29.2155531,32.1117271 C29.4331583,32.1575701 29.5588961,32.3704126 29.5287376,32.5916753 L27.0696593,50.6753369 C26.9457774,51.5833091 26.0062239,52.1516688 25.115388,51.9645545 C24.2240881,51.7774402 23.5856557,50.8872439 23.8334194,49.9984509 L28.7395127,32.424208 Z M30.8366889,28.8737141 C31.036199,28.862955 31.1953431,29.0163888 31.2166861,29.2180044 L33.4159372,49.6069143 C33.5073407,50.4334917 32.8308622,51.1375093 32.0119427,51.1814811 C31.1930232,51.225453 30.4455562,50.6028301 30.4474053,49.7659614 L30.4952018,29.2563629 C30.4947378,29.0580217 30.6376427,28.8844732 30.8366889,28.8737141 Z M29.7495907,25.954731 C29.8827521,25.7400174 30.146755,25.6506703 30.3671441,25.7718268 C30.5875332,25.8934511 30.6557378,26.1657024 30.5480952,26.3949174 L19.6520584,49.668662 C19.1890093,50.6580289 17.9381272,50.9812688 16.9855823,50.456881 C16.0335015,49.9320254 15.6279855,48.6956676 16.203781,47.7685163 L29.7495907,25.954731 Z M32.995574,35.3534824 C33.1677095,35.2964125 33.3417009,35.3960509 33.4117614,35.5644538 L38.3359497,47.3821252 C38.6231515,48.0711736 38.1786615,48.8687483 37.4687767,49.1035768 C36.7588918,49.3379375 35.9320847,48.9627733 35.7585573,48.2344309 L32.7858564,35.7712151 C32.7431705,35.5939243 32.8229746,35.4105522 32.995574,35.3534824 Z M26.0563334,28.2057161 C26.2428522,28.0359098 26.5189185,28.0186018 26.6998696,28.194957 C26.8803567,28.3708444 26.872933,28.6501125 26.7105411,28.8437758 L12.2307456,46.1345407 C11.5306043,46.9704738 10.2323965,46.9424066 9.45245114,46.181787 C8.67204176,45.4216352 8.60012532,44.1146418 9.40512548,43.3806859 L26.0563334,28.2057161 Z M32.7501302,31.4217431 C32.9041706,31.3253793 33.096721,31.3787068 33.2025078,31.5283983 L42.2802185,44.3766018 C42.7135731,44.9898689 42.472769,45.8604182 41.8371205,46.256165 C41.2014719,46.6519117 40.3208435,46.4769598 39.9747166,45.8187853 L32.6420235,31.8778342 C32.5571157,31.7164481 32.5956258,31.5176392 32.7501302,31.4217431 Z M37.7680418,35.9190354 C37.8849641,35.7917976 38.067307,35.7960077 38.209748,35.9003239 L45.1926024,41.0370793 C45.7929887,41.4791368 45.7493749,42.3941258 45.2501356,42.9353539 C44.7508963,43.476582 43.8289739,43.5631224 43.3663888,43.0125385 L37.7814972,36.3648352 C37.6719986,36.234323 37.6506557,36.0462731 37.7680418,35.9190354 Z M30.8380808,22.2040248 C31.1220347,22.0543334 31.4695535,22.1296469 31.6333374,22.4075116 C31.7975853,22.6849086 31.6969023,23.0277956 31.4319714,23.2092964 L6.55816237,40.1234937 L6.54006727,40.1305105 C5.50168666,40.8312536 4.07820511,40.4200699 3.43884475,39.3380814 C2.79948439,38.2556252 3.12009252,36.7877135 4.22482185,36.2114015 L30.8380808,22.2040248 Z M35.6898887,32.7315432 C35.7738685,32.5799807 35.9562115,32.5341376 36.1148917,32.6080478 L47.2842109,37.843506 C47.8887729,38.1269841 48.0729718,38.9105253 47.7500438,39.4957252 C47.4271158,40.0809252 46.6629456,40.3330617 46.1131329,39.9695922 L35.8105227,33.160035 C35.6690097,33.0664778 35.6063728,32.8831058 35.6898887,32.7315432 Z M43.8363414,34.2072234 L43.8888269,34.2097462 L48.7030526,34.6999857 C49.2987992,34.7607978 49.6282229,35.483059 49.4695427,36.0734047 C49.3108626,36.6637503 48.6715022,37.124987 48.1165857,36.8677049 L43.7217952,34.8267556 C43.563579,34.7533133 43.4596482,34.603154 43.504654,34.4356867 C43.5501237,34.2682194 43.7120517,34.1919704 43.8888269,34.2097462 L43.8363414,34.2072234 Z M49.5938886,31.282343 C50.1979867,31.2374355 50.6884104,31.7903583 50.6847402,32.4017543 C50.6805228,33.0131503 50.1822114,33.5543784 49.5785773,33.5047931 L39.3655148,32.6674566 C39.1933793,32.6543586 39.0546502,32.5247819 39.0555689,32.3512334 C39.0560421,32.1776849 39.1961632,32.0499794 39.3669067,32.0373492 L49.5938886,31.282343 Z M25.7338694,22.5253937 C26.0479819,22.461307 26.3625583,22.6240964 26.4474661,22.9356418 C26.5319099,23.2476549 26.347247,23.5489089 26.0414862,23.6560318 L2.8579455,31.8095375 C1.70357062,32.2155755 0.412786505,31.4376478 0.0824348538,30.2228082 C-0.247452821,29.0079686 0.439697173,27.6640202 1.66227667,27.4156259 L25.7338694,22.5253937 Z M50.1344218,28.2272342 C50.6299493,28.0368454 51.1732664,28.4414801 51.2920445,28.9625934 C51.4108226,29.4837067 51.0985661,30.0918282 50.5696323,30.1348645 L45.9358936,30.5118998 C45.7646861,30.5264012 45.6022941,30.441732 45.564248,30.2723935 C45.5262019,30.1030551 45.6347725,29.9571059 45.7980925,29.8944226 L50.1344218,28.2272342 Z M49.9112489,24.5293878 C50.4114161,24.2103579 51.1171252,24.4653012 51.3973673,25.0079326 C51.6776094,25.5500963 51.4929466,26.2732931 50.9301424,26.5085893 L42.351671,30.0927638 C42.1925269,30.1596572 42.0111119,30.1138142 41.9313078,29.9599126 C41.8515038,29.8055433 41.9164605,29.6282525 42.0635413,29.535631 L49.9112489,24.5293878 Z M47.7300928,16.0928717 C47.9824963,15.5315288 48.6733581,15.4056945 49.2050758,15.6994639 C49.7367935,15.9937012 49.9627503,16.6902342 49.6393583,17.2029273 L43.4007231,27.1616183 C43.3088556,27.3099063 43.1297605,27.3711863 42.978504,27.288856 C42.8267835,27.2060579 42.7808498,27.0198792 42.8523022,26.863171 L47.7300928,16.0928717 Z M49.2496176,20.6303936 C49.6022401,20.1340729 50.3687302,20.1850615 50.8025487,20.6121499 C51.2363673,21.0397061 51.3119955,21.8251184 50.8206438,22.1778288 L46.9223088,24.9812689 C46.7784759,25.0841817 46.6017006,25.101022 46.4801387,24.9784621 C46.3581127,24.8559023 46.3604326,24.6973229 46.4764268,24.5331301 L49.2496176,20.6303936 Z M42.4082762,6.42768956 C43.0146942,6.41859457 43.5496597,6.90696289 43.5250689,7.51789109 L42.8722532,23.74304 C42.8657576,23.9179918 42.73538,24.0587954 42.5632445,24.0602197 C42.3911091,24.0616021 42.2584116,23.9231375 42.2486681,23.7486534 L41.3109705,7.50338973 C41.2757083,6.89199375 41.8018582,6.437306 42.4082762,6.42768956 Z M2.57245281,18.1845581 L2.66771491,18.1871486 L33.8274849,19.7654577 C34.148557,19.7808946 34.4079201,20.0274177 34.4079201,20.3506577 C34.4079201,20.6738976 34.1490209,20.917614 33.8274849,20.9353899 L2.66771491,22.7489952 C1.41590486,22.821502 0.405362873,21.7278189 0.405362873,20.4680719 C0.405362873,19.2083249 1.42332849,18.1244653 2.66771491,18.1871486 L2.57245281,18.1845581 Z M27.7916076,0.243822615 C28.5580976,-0.228640997 29.6099336,0.0029129518 30.0279769,0.787857449 L40.7096563,20.7033681 C40.8251866,20.9185496 40.7699733,21.1870586 40.5625756,21.3142963 C40.3556418,21.4420018 40.0925668,21.3713662 39.9556936,21.1669438 L27.2520023,2.49808217 C26.7416275,1.75523839 27.0251175,0.715818443 27.7916076,0.243822615 Z M13.3127401,4.07545573 L37.4154193,19.3846801 C37.643696,19.5292259 37.7309237,19.8159786 37.5991542,20.0512748 C37.4673847,20.286571 37.178327,20.3595456 36.9379869,20.2369857 L11.4846706,7.3401325 C10.5618202,6.87842796 10.2746185,5.68791322 10.7794255,4.78602228 C11.2842325,3.88459914 12.4432471,3.52066182 13.3127401,4.07545573 Z M45.2640549,11.8650241 C45.3452509,11.2489503 46.0105939,10.9607942 46.6054125,11.1081468 C47.200231,11.2550315 47.6321936,11.8701697 47.4141244,12.4450784 L44.8552911,19.4305231 C44.796366,19.5947159 44.6441816,19.7009033 44.4771498,19.6588026 C44.3101181,19.616234 44.2252103,19.4464278 44.250729,19.2775572 L45.2640549,11.8650241 Z M36.0137447,2.3787968 C36.7468284,2.15800192 37.5722435,2.56684667 37.7378833,3.31717502 L41.1049647,18.2343949 C41.1522904,18.4378817 41.0520713,18.6418363 40.8548811,18.7012451 C40.6581548,18.7606539 40.4637484,18.6460464 40.391832,18.4495764 L35.0830067,4.11755645 C34.814364,3.40465096 35.280197,2.60005946 36.0137447,2.3787968 Z M4.31715328,11.4617928 C4.63822539,10.2446142 5.88493169,9.41850461 7.0870962,9.83623729 L29.3654177,17.6431137 C29.6373082,17.7357353 29.8075878,18.0009698 29.7361353,18.2797701 C29.6642189,18.5585705 29.3904724,18.7106008 29.1051266,18.6558699 L5.92019395,14.258216 C4.686479,14.0215164 3.99561719,12.6794391 4.31715328,11.4617928 Z M18.9871793,0.973568393 C19.6418509,0.286391119 20.7730269,0.230256828 21.4063556,0.924918675 L35.3330903,16.112051 C35.4987302,16.2907451 35.5149693,16.5625286 35.3470097,16.7393517 C35.17905,16.9166425 34.9117992,16.913368 34.7252804,16.753853 L19.0354329,3.41260332 C18.3158045,2.80588519 18.3325077,1.66074567 18.9871793,0.973568393 Z" id="path-3"></path>
        <polygon id="path-5" points="215 0 215 52 0 52 0 0"></polygon>
        <polygon id="path-7" points="4.37298359 0 4.37298359 21.5892481 0 21.5892481 0 0"></polygon>
        <polygon id="path-9" points="13.0289392 0 13.0289392 4.19603821 4.37298359 4.19603821 4.37298359 8.66619888 11.1591118 8.66619888 11.1591118 12.8622371 4.37298359 12.8622371 4.37298359 21.5892481 0 21.5892481 0 0"></polygon>
        <path d="M7.72057792,0 C12.3352935,0 15.0797177,3.34513593 15.2305103,6.56817977 L10.8876852,6.56817977 C10.4046851,4.74334755 8.98723524,4.07441392 7.72057792,4.07441392 C6.18249404,4.07441392 4.97615374,4.80462748 4.94599523,6.08168259 C4.91583672,7.41908206 5.88090896,8.14929562 7.63056638,8.66619888 L10.1337225,9.36553858 C13.6019509,10.338533 15.6828879,12.5581764 15.6828879,15.9028445 C15.6828879,19.5819795 12.7273541,22.3189939 8.23327255,22.3189939 C3.10632627,22.3189939 0.180951045,18.8218276 0,15.2643169 L4.37298359,15.2643169 C4.67456866,17.2103057 6.33375055,18.24458 8.23327255,18.24458 C9.98292996,18.24458 11.2797458,17.4231482 11.2797458,16.0548749 C11.2797458,14.8994441 10.4654661,14.0176679 8.41422359,13.4399525 L6.15233553,12.7710189 C2.77458269,11.7980245 0.573011643,9.66959932 0.542853135,6.38574333 C0.512694628,2.40207985 3.43806986,0 7.72057792,0 Z" id="path-11"></path>
        <path d="M2.8047412,0 L2.8047412,13.2575161 C2.8047412,17.1195552 5.03647075,19.2779187 8.38406509,19.2779187 C11.7316594,19.2779187 13.963853,17.1195552 13.963853,13.2575161 L13.963853,0 L16.7685941,0 L16.7685941,13.1967039 C16.7685941,18.5790468 13.3305243,21.954121 8.38406509,21.954121 C3.43806986,21.954121 0,18.5790468 0,13.1967039 L0,0 L2.8047412,0 Z" id="path-13"></path>
        <polygon id="path-15" points="2.59363165 0 2.59363165 22.8054911 0 22.8054911 0 0"></polygon>
        <path d="M5.79043344,0 L5.79043344,4.22691207 L10.1332585,4.22691207 L10.1332585,6.62899192 L5.79043344,6.62899192 L5.79043344,14.5953833 C5.79043344,16.5418398 6.66503016,17.1803674 8.29358956,17.1803674 C8.92691822,17.1803674 9.6507224,17.0582753 10.1332585,16.8763067 L10.1332585,19.2175744 C9.49992986,19.4304169 8.74596718,19.5824472 7.81105344,19.5824472 C5.18726329,19.5824472 3.1968018,18.0920818 3.1968018,14.9303179 L3.1968018,6.62899192 L0,6.62899192 L0,4.22691207 L3.1968018,4.22691207 L3.1968018,0 L5.79043344,0 Z" id="path-17"></path>
        <path d="M3.13648478,7.78395495 L3.13648478,22.9874597 L0.542853135,22.9874597 L0.542853135,7.78395495 L3.13648478,7.78395495 Z M1.87029144,0 C2.8956807,0 3.67933792,0.850902287 3.67933792,1.85430273 C3.67933792,2.88810925 2.8956807,3.70954103 1.87029144,3.70954103 C0.84443821,3.70954103 0,2.88810925 0,1.85430273 C0,0.850902287 0.84443821,0 1.87029144,0 Z" id="path-19"></path>
        <path d="M16.7384356,0 C20.0261769,0 22.0166384,2.462892 22.0166384,6.17243303 L22.0166384,15.5075655 L19.4230068,15.5075655 L19.4230068,6.56771199 C19.4230068,4.10481999 18.3971536,2.40207985 16.4368506,2.40207985 C13.9940115,2.40207985 12.305135,4.53050503 12.305135,7.96639139 L12.305135,15.5075655 L9.71150339,15.5075655 L9.71150339,6.56771199 C9.71150339,4.10481999 8.71627265,2.40207985 6.75596966,2.40207985 C4.31266657,2.40207985 2.59363165,4.53050503 2.59363165,7.96639139 L2.59363165,15.5075655 L0,15.5075655 L0,0.30406074 L2.59363165,0.30406074 L2.59363165,2.64532844 C3.46869234,1.03380652 5.12694628,0 7.14803026,0 C9.40991832,0 11.0384777,1.24664903 11.7924404,3.25344992 C12.6067201,1.24664903 14.5067061,0 16.7384356,0 Z" id="path-21"></path>
        <path d="M7.90199294,0 C12.4257691,0 15.7733634,3.52710459 15.7733634,7.90604703 C15.7733634,12.2845217 12.4257691,15.8116263 7.90199294,15.8116263 C3.34805831,15.8116263 0,12.2845217 0,7.90604703 C0,3.52710459 3.34805831,0 7.90199294,0 Z M7.90199294,2.43248592 C4.76550816,2.43248592 2.65394866,4.86497184 2.65394866,7.90604703 C2.65394866,10.9466544 4.76550816,13.3791404 7.90199294,13.3791404 C11.0384777,13.3791404 13.1198787,10.9466544 13.1198787,7.90604703 C13.1198787,4.86497184 11.0384777,2.43248592 7.90199294,2.43248592 Z" id="path-23"></path>
    </defs>
    <g id="Page-1" stroke="none" stroke-width="1" fill="none" fill-rule="evenodd">
        <g id="About-us" transform="translate(-735.000000, -2103.000000)">
            <g id="Group-31" transform="translate(735.000000, 2103.000000)">
                <g id="IFS-Ultimo-WIT" transform="translate(28.000000, 38.000000)">
                    <g id="Clipped">
                        <mask id="mask-2" fill="white">
                            <use xlink:href="#path-1"></use>
                        </mask>
                        <g id="Path"></g>
                        <g id="Group" mask="url(#mask-2)">
                            <g transform="translate(-0.000033, -0.000059)" id="Clipped">
                                <mask id="mask-4" fill="white">
                                    <use xlink:href="#path-3"></use>
                                </mask>
                                <g id="Shape"></g>
                                <polygon id="Path" fill="#FFFFFF" fill-rule="nonzero" mask="url(#mask-4)" points="3.25316942e-05 5.94586964e-05 51.5265455 5.94586964e-05 51.5265455 52.0000594 3.25316942e-05 52.0000594"></polygon>
                            </g>
                        </g>
                    </g>
                    <g id="Clipped">
                        <mask id="mask-6" fill="white">
                            <use xlink:href="#path-5"></use>
                        </mask>
                        <g id="Path"></g>
                        <g id="Group" mask="url(#mask-6)">
                            <g transform="translate(64.625413, 8.651557)">
                                <g transform="translate(13.667000, 7.167554)" id="Clipped">
                                    <mask id="mask-8" fill="white">
                                        <use xlink:href="#path-7"></use>
                                    </mask>
                                    <g id="Path"></g>
                                    <polygon id="Path" fill="#FFFFFF" fill-rule="nonzero" mask="url(#mask-8)" points="0 0 4.37298359 0 4.37298359 21.5892481 0 21.5892481"></polygon>
                                </g>
                                <g transform="translate(22.503536, 7.167694)" id="Clipped">
                                    <mask id="mask-10" fill="white">
                                        <use xlink:href="#path-9"></use>
                                    </mask>
                                    <g id="Path"></g>
                                    <polygon id="Path" fill="#FFFFFF" fill-rule="nonzero" mask="url(#mask-10)" points="0 0 13.0289392 0 13.0289392 21.5892481 0 21.5892481"></polygon>
                                </g>
                                <g transform="translate(36.889237, 6.802868)" id="Clipped">
                                    <mask id="mask-12" fill="white">
                                        <use xlink:href="#path-11"></use>
                                    </mask>
                                    <g id="Path"></g>
                                    <polygon id="Path" fill="#FFFFFF" fill-rule="nonzero" mask="url(#mask-12)" points="0 0 15.6828879 0 15.6828879 22.3189939 0 22.3189939"></polygon>
                                </g>
                                <g transform="translate(62.583775, 7.167741)" id="Clipped">
                                    <mask id="mask-14" fill="white">
                                        <use xlink:href="#path-13"></use>
                                    </mask>
                                    <g id="Path"></g>
                                    <polygon id="Path" fill="#FFFFFF" fill-rule="nonzero" mask="url(#mask-14)" points="0 0 16.7685941 0 16.7685941 21.954121 0 21.954121"></polygon>
                                </g>
                                <g transform="translate(83.815225, 5.951311)" id="Clipped">
                                    <mask id="mask-16" fill="white">
                                        <use xlink:href="#path-15"></use>
                                    </mask>
                                    <g id="Path"></g>
                                    <polygon id="Path" fill="#FFFFFF" fill-rule="nonzero" mask="url(#mask-16)" points="0 0 2.59363165 0 2.59363165 22.8054911 0 22.8054911"></polygon>
                                </g>
                                <g transform="translate(89.062944, 9.326572)" id="Clipped">
                                    <mask id="mask-18" fill="white">
                                        <use xlink:href="#path-17"></use>
                                    </mask>
                                    <g id="Path"></g>
                                    <polygon id="Path" fill="#FFFFFF" fill-rule="nonzero" mask="url(#mask-18)" points="0 0 10.1332585 0 10.1332585 19.5824472 0 19.5824472"></polygon>
                                </g>
                                <g transform="translate(101.668597, 5.769342)" id="Clipped">
                                    <mask id="mask-20" fill="white">
                                        <use xlink:href="#path-19"></use>
                                    </mask>
                                    <g id="Shape"></g>
                                    <polygon id="Path" fill="#FFFFFF" fill-rule="nonzero" mask="url(#mask-20)" points="0 0 3.67933792 0 3.67933792 22.9874597 0 22.9874597"></polygon>
                                </g>
                                <g transform="translate(109.419287, 13.249330)" id="Clipped">
                                    <mask id="mask-22" fill="white">
                                        <use xlink:href="#path-21"></use>
                                    </mask>
                                    <g id="Path"></g>
                                    <polygon id="Path" fill="#FFFFFF" fill-rule="nonzero" mask="url(#mask-22)" points="0 0 22.0166384 0 22.0166384 15.5075655 0 15.5075655"></polygon>
                                </g>
                                <g transform="translate(134.601224, 13.249189)" id="Clipped">
                                    <mask id="mask-24" fill="white">
                                        <use xlink:href="#path-23"></use>
                                    </mask>
                                    <g id="Shape"></g>
                                    <polygon id="Path" fill="#FFFFFF" fill-rule="nonzero" mask="url(#mask-24)" points="0 0 15.7733634 0 15.7733634 15.8116263 0 15.8116263"></polygon>
                                </g>
                                <g>
                                    <line x1="0.5" y1="0" x2="0.5" y2="35.4941797" id="Path" stroke="#FFFFFF" stroke-width="1.8589358"></line>
                                </g>
                            </g>
                        </g>
                    </g>
                </g>
                <rect id="Rectangle-Copy-8" x="0" y="0" width="270" height="128"></rect>
            </g>
        </g>
    </g>
</svg>